<mxfile host="app.diagrams.net" agent="Mozilla/5.0 (Windows NT 10.0; Win64; x64) AppleWebKit/537.36 (KHTML, like Gecko) Chrome/131.0.0.0 Safari/537.36" version="26.0.4">
  <diagram id="R2lEEEUBdFMjLlhIrx00" name="Page-1">
    <mxGraphModel dx="1843" dy="796" grid="1" gridSize="10" guides="1" tooltips="1" connect="1" arrows="1" fold="1" page="1" pageScale="1" pageWidth="850" pageHeight="1100" math="0" shadow="0" extFonts="Permanent Marker^https://fonts.googleapis.com/css?family=Permanent+Marker">
      <root>
        <mxCell id="0" />
        <mxCell id="1" parent="0" />
        <mxCell id="3bfaiD1BpheH9gyGS9vT-1" value="Ögrenci" style="rounded=0;whiteSpace=wrap;html=1;" vertex="1" parent="1">
          <mxGeometry x="130" y="350" width="120" height="40" as="geometry" />
        </mxCell>
        <mxCell id="3bfaiD1BpheH9gyGS9vT-2" value="Ders" style="rounded=0;whiteSpace=wrap;html=1;" vertex="1" parent="1">
          <mxGeometry x="420" y="348" width="120" height="40" as="geometry" />
        </mxCell>
        <mxCell id="3bfaiD1BpheH9gyGS9vT-3" value="&lt;u&gt;ID_Ogrenci&lt;/u&gt;" style="ellipse;whiteSpace=wrap;html=1;" vertex="1" parent="1">
          <mxGeometry x="20" y="310" width="90" height="30" as="geometry" />
        </mxCell>
        <mxCell id="3bfaiD1BpheH9gyGS9vT-4" value="İsim" style="ellipse;whiteSpace=wrap;html=1;" vertex="1" parent="1">
          <mxGeometry x="20" y="390" width="90" height="30" as="geometry" />
        </mxCell>
        <mxCell id="3bfaiD1BpheH9gyGS9vT-6" value="İsim" style="ellipse;whiteSpace=wrap;html=1;" vertex="1" parent="1">
          <mxGeometry x="520" y="40" width="90" height="30" as="geometry" />
        </mxCell>
        <mxCell id="3bfaiD1BpheH9gyGS9vT-7" value="&lt;u&gt;ID_Hoca&lt;/u&gt;" style="ellipse;whiteSpace=wrap;html=1;" vertex="1" parent="1">
          <mxGeometry x="360" y="40" width="90" height="30" as="geometry" />
        </mxCell>
        <mxCell id="3bfaiD1BpheH9gyGS9vT-8" value="İsim" style="ellipse;whiteSpace=wrap;html=1;" vertex="1" parent="1">
          <mxGeometry x="540" y="420" width="90" height="30" as="geometry" />
        </mxCell>
        <mxCell id="3bfaiD1BpheH9gyGS9vT-9" value="&lt;u&gt;ID_Ders&lt;/u&gt;" style="ellipse;whiteSpace=wrap;html=1;" vertex="1" parent="1">
          <mxGeometry x="560" y="355" width="90" height="30" as="geometry" />
        </mxCell>
        <mxCell id="3bfaiD1BpheH9gyGS9vT-10" value="Hocalar" style="rounded=0;whiteSpace=wrap;html=1;" vertex="1" parent="1">
          <mxGeometry x="425" y="100" width="120" height="40" as="geometry" />
        </mxCell>
        <mxCell id="3bfaiD1BpheH9gyGS9vT-11" value="Aldığı" style="rhombus;whiteSpace=wrap;html=1;" vertex="1" parent="1">
          <mxGeometry x="290" y="330" width="80" height="80" as="geometry" />
        </mxCell>
        <mxCell id="3bfaiD1BpheH9gyGS9vT-13" value="Verir" style="rhombus;whiteSpace=wrap;html=1;" vertex="1" parent="1">
          <mxGeometry x="440" y="200" width="80" height="80" as="geometry" />
        </mxCell>
        <mxCell id="3bfaiD1BpheH9gyGS9vT-14" value="" style="endArrow=classic;html=1;rounded=0;exitX=0.5;exitY=1;exitDx=0;exitDy=0;entryX=0.5;entryY=0;entryDx=0;entryDy=0;" edge="1" parent="1" source="3bfaiD1BpheH9gyGS9vT-10" target="3bfaiD1BpheH9gyGS9vT-13">
          <mxGeometry width="50" height="50" relative="1" as="geometry">
            <mxPoint x="400" y="320" as="sourcePoint" />
            <mxPoint x="450" y="270" as="targetPoint" />
          </mxGeometry>
        </mxCell>
        <mxCell id="3bfaiD1BpheH9gyGS9vT-15" value="" style="endArrow=classic;html=1;rounded=0;entryX=0.5;entryY=0;entryDx=0;entryDy=0;" edge="1" parent="1" target="3bfaiD1BpheH9gyGS9vT-2">
          <mxGeometry width="50" height="50" relative="1" as="geometry">
            <mxPoint x="480" y="280" as="sourcePoint" />
            <mxPoint x="490" y="210" as="targetPoint" />
            <Array as="points" />
          </mxGeometry>
        </mxCell>
        <mxCell id="3bfaiD1BpheH9gyGS9vT-16" value="" style="endArrow=classic;html=1;rounded=0;exitX=1;exitY=0.5;exitDx=0;exitDy=0;entryX=0;entryY=0.5;entryDx=0;entryDy=0;" edge="1" parent="1" source="3bfaiD1BpheH9gyGS9vT-1" target="3bfaiD1BpheH9gyGS9vT-11">
          <mxGeometry width="50" height="50" relative="1" as="geometry">
            <mxPoint x="400" y="320" as="sourcePoint" />
            <mxPoint x="450" y="270" as="targetPoint" />
          </mxGeometry>
        </mxCell>
        <mxCell id="3bfaiD1BpheH9gyGS9vT-17" value="" style="endArrow=classic;html=1;rounded=0;exitX=1;exitY=0.5;exitDx=0;exitDy=0;entryX=0;entryY=0.5;entryDx=0;entryDy=0;" edge="1" parent="1" source="3bfaiD1BpheH9gyGS9vT-11" target="3bfaiD1BpheH9gyGS9vT-2">
          <mxGeometry width="50" height="50" relative="1" as="geometry">
            <mxPoint x="380" y="380" as="sourcePoint" />
            <mxPoint x="450" y="270" as="targetPoint" />
          </mxGeometry>
        </mxCell>
        <mxCell id="3bfaiD1BpheH9gyGS9vT-18" value="" style="endArrow=none;html=1;rounded=0;exitX=1;exitY=0.5;exitDx=0;exitDy=0;entryX=0;entryY=0;entryDx=0;entryDy=0;" edge="1" parent="1" source="3bfaiD1BpheH9gyGS9vT-3" target="3bfaiD1BpheH9gyGS9vT-1">
          <mxGeometry width="50" height="50" relative="1" as="geometry">
            <mxPoint x="400" y="320" as="sourcePoint" />
            <mxPoint x="450" y="270" as="targetPoint" />
          </mxGeometry>
        </mxCell>
        <mxCell id="3bfaiD1BpheH9gyGS9vT-19" value="" style="endArrow=none;html=1;rounded=0;exitX=0;exitY=1;exitDx=0;exitDy=0;entryX=1;entryY=0.5;entryDx=0;entryDy=0;" edge="1" parent="1" source="3bfaiD1BpheH9gyGS9vT-1" target="3bfaiD1BpheH9gyGS9vT-4">
          <mxGeometry width="50" height="50" relative="1" as="geometry">
            <mxPoint x="400" y="320" as="sourcePoint" />
            <mxPoint x="450" y="270" as="targetPoint" />
          </mxGeometry>
        </mxCell>
        <mxCell id="3bfaiD1BpheH9gyGS9vT-22" value="" style="endArrow=none;html=1;rounded=0;entryX=0.5;entryY=1;entryDx=0;entryDy=0;exitX=0;exitY=0;exitDx=0;exitDy=0;" edge="1" parent="1" source="3bfaiD1BpheH9gyGS9vT-10" target="3bfaiD1BpheH9gyGS9vT-7">
          <mxGeometry width="50" height="50" relative="1" as="geometry">
            <mxPoint x="400" y="220" as="sourcePoint" />
            <mxPoint x="450" y="170" as="targetPoint" />
          </mxGeometry>
        </mxCell>
        <mxCell id="3bfaiD1BpheH9gyGS9vT-23" value="" style="endArrow=none;html=1;rounded=0;entryX=0.5;entryY=1;entryDx=0;entryDy=0;exitX=1;exitY=0;exitDx=0;exitDy=0;" edge="1" parent="1" source="3bfaiD1BpheH9gyGS9vT-10" target="3bfaiD1BpheH9gyGS9vT-6">
          <mxGeometry width="50" height="50" relative="1" as="geometry">
            <mxPoint x="400" y="220" as="sourcePoint" />
            <mxPoint x="450" y="170" as="targetPoint" />
          </mxGeometry>
        </mxCell>
        <mxCell id="3bfaiD1BpheH9gyGS9vT-24" value="" style="endArrow=none;html=1;rounded=0;entryX=0.378;entryY=0.013;entryDx=0;entryDy=0;entryPerimeter=0;exitX=1;exitY=0;exitDx=0;exitDy=0;" edge="1" parent="1" source="3bfaiD1BpheH9gyGS9vT-2" target="3bfaiD1BpheH9gyGS9vT-9">
          <mxGeometry width="50" height="50" relative="1" as="geometry">
            <mxPoint x="400" y="220" as="sourcePoint" />
            <mxPoint x="450" y="170" as="targetPoint" />
          </mxGeometry>
        </mxCell>
        <mxCell id="3bfaiD1BpheH9gyGS9vT-25" value="" style="endArrow=none;html=1;rounded=0;entryX=0.5;entryY=0;entryDx=0;entryDy=0;exitX=1;exitY=1;exitDx=0;exitDy=0;" edge="1" parent="1" source="3bfaiD1BpheH9gyGS9vT-2" target="3bfaiD1BpheH9gyGS9vT-8">
          <mxGeometry width="50" height="50" relative="1" as="geometry">
            <mxPoint x="400" y="220" as="sourcePoint" />
            <mxPoint x="450" y="170" as="targetPoint" />
          </mxGeometry>
        </mxCell>
        <mxCell id="3bfaiD1BpheH9gyGS9vT-27" value="1" style="text;html=1;align=center;verticalAlign=middle;resizable=0;points=[];autosize=1;strokeColor=none;fillColor=none;" vertex="1" parent="1">
          <mxGeometry x="480" y="310" width="30" height="30" as="geometry" />
        </mxCell>
        <mxCell id="3bfaiD1BpheH9gyGS9vT-28" value="1" style="text;html=1;align=center;verticalAlign=middle;resizable=0;points=[];autosize=1;strokeColor=none;fillColor=none;" vertex="1" parent="1">
          <mxGeometry x="505" y="148" width="30" height="30" as="geometry" />
        </mxCell>
        <mxCell id="3bfaiD1BpheH9gyGS9vT-29" value="n" style="text;html=1;align=center;verticalAlign=middle;resizable=0;points=[];autosize=1;strokeColor=none;fillColor=none;" vertex="1" parent="1">
          <mxGeometry x="250" y="370" width="30" height="30" as="geometry" />
        </mxCell>
        <mxCell id="3bfaiD1BpheH9gyGS9vT-30" value="n" style="text;html=1;align=center;verticalAlign=middle;resizable=0;points=[];autosize=1;strokeColor=none;fillColor=none;" vertex="1" parent="1">
          <mxGeometry x="390" y="370" width="30" height="30" as="geometry" />
        </mxCell>
        <mxCell id="3bfaiD1BpheH9gyGS9vT-31" value="" style="shape=table;startSize=0;container=1;collapsible=0;childLayout=tableLayout;fontSize=16;" vertex="1" parent="1">
          <mxGeometry x="41" y="550" width="180" height="60" as="geometry" />
        </mxCell>
        <mxCell id="3bfaiD1BpheH9gyGS9vT-32" value="" style="shape=tableRow;horizontal=0;startSize=0;swimlaneHead=0;swimlaneBody=0;strokeColor=inherit;top=0;left=0;bottom=0;right=0;collapsible=0;dropTarget=0;fillColor=none;points=[[0,0.5],[1,0.5]];portConstraint=eastwest;fontSize=16;" vertex="1" parent="3bfaiD1BpheH9gyGS9vT-31">
          <mxGeometry width="180" height="20" as="geometry" />
        </mxCell>
        <mxCell id="3bfaiD1BpheH9gyGS9vT-33" value="ID_ogrenci" style="shape=partialRectangle;html=1;whiteSpace=wrap;connectable=0;strokeColor=inherit;overflow=hidden;fillColor=none;top=0;left=0;bottom=0;right=0;pointerEvents=1;fontSize=16;" vertex="1" parent="3bfaiD1BpheH9gyGS9vT-32">
          <mxGeometry width="100" height="20" as="geometry">
            <mxRectangle width="100" height="20" as="alternateBounds" />
          </mxGeometry>
        </mxCell>
        <mxCell id="3bfaiD1BpheH9gyGS9vT-34" value="İsim" style="shape=partialRectangle;html=1;whiteSpace=wrap;connectable=0;strokeColor=inherit;overflow=hidden;fillColor=none;top=0;left=0;bottom=0;right=0;pointerEvents=1;fontSize=16;" vertex="1" parent="3bfaiD1BpheH9gyGS9vT-32">
          <mxGeometry x="100" width="60" height="20" as="geometry">
            <mxRectangle width="60" height="20" as="alternateBounds" />
          </mxGeometry>
        </mxCell>
        <mxCell id="3bfaiD1BpheH9gyGS9vT-35" value="" style="shape=partialRectangle;html=1;whiteSpace=wrap;connectable=0;strokeColor=inherit;overflow=hidden;fillColor=none;top=0;left=0;bottom=0;right=0;pointerEvents=1;fontSize=16;" vertex="1" parent="3bfaiD1BpheH9gyGS9vT-32">
          <mxGeometry x="160" width="20" height="20" as="geometry">
            <mxRectangle width="20" height="20" as="alternateBounds" />
          </mxGeometry>
        </mxCell>
        <mxCell id="3bfaiD1BpheH9gyGS9vT-36" value="" style="shape=tableRow;horizontal=0;startSize=0;swimlaneHead=0;swimlaneBody=0;strokeColor=inherit;top=0;left=0;bottom=0;right=0;collapsible=0;dropTarget=0;fillColor=none;points=[[0,0.5],[1,0.5]];portConstraint=eastwest;fontSize=16;" vertex="1" parent="3bfaiD1BpheH9gyGS9vT-31">
          <mxGeometry y="20" width="180" height="20" as="geometry" />
        </mxCell>
        <mxCell id="3bfaiD1BpheH9gyGS9vT-37" value="1" style="shape=partialRectangle;html=1;whiteSpace=wrap;connectable=0;strokeColor=inherit;overflow=hidden;fillColor=none;top=0;left=0;bottom=0;right=0;pointerEvents=1;fontSize=16;" vertex="1" parent="3bfaiD1BpheH9gyGS9vT-36">
          <mxGeometry width="100" height="20" as="geometry">
            <mxRectangle width="100" height="20" as="alternateBounds" />
          </mxGeometry>
        </mxCell>
        <mxCell id="3bfaiD1BpheH9gyGS9vT-38" value="abc" style="shape=partialRectangle;html=1;whiteSpace=wrap;connectable=0;strokeColor=inherit;overflow=hidden;fillColor=none;top=0;left=0;bottom=0;right=0;pointerEvents=1;fontSize=16;" vertex="1" parent="3bfaiD1BpheH9gyGS9vT-36">
          <mxGeometry x="100" width="60" height="20" as="geometry">
            <mxRectangle width="60" height="20" as="alternateBounds" />
          </mxGeometry>
        </mxCell>
        <mxCell id="3bfaiD1BpheH9gyGS9vT-39" value="" style="shape=partialRectangle;html=1;whiteSpace=wrap;connectable=0;strokeColor=inherit;overflow=hidden;fillColor=none;top=0;left=0;bottom=0;right=0;pointerEvents=1;fontSize=16;" vertex="1" parent="3bfaiD1BpheH9gyGS9vT-36">
          <mxGeometry x="160" width="20" height="20" as="geometry">
            <mxRectangle width="20" height="20" as="alternateBounds" />
          </mxGeometry>
        </mxCell>
        <mxCell id="3bfaiD1BpheH9gyGS9vT-40" value="" style="shape=tableRow;horizontal=0;startSize=0;swimlaneHead=0;swimlaneBody=0;strokeColor=inherit;top=0;left=0;bottom=0;right=0;collapsible=0;dropTarget=0;fillColor=none;points=[[0,0.5],[1,0.5]];portConstraint=eastwest;fontSize=16;" vertex="1" parent="3bfaiD1BpheH9gyGS9vT-31">
          <mxGeometry y="40" width="180" height="20" as="geometry" />
        </mxCell>
        <mxCell id="3bfaiD1BpheH9gyGS9vT-41" value="2" style="shape=partialRectangle;html=1;whiteSpace=wrap;connectable=0;strokeColor=inherit;overflow=hidden;fillColor=none;top=0;left=0;bottom=0;right=0;pointerEvents=1;fontSize=16;" vertex="1" parent="3bfaiD1BpheH9gyGS9vT-40">
          <mxGeometry width="100" height="20" as="geometry">
            <mxRectangle width="100" height="20" as="alternateBounds" />
          </mxGeometry>
        </mxCell>
        <mxCell id="3bfaiD1BpheH9gyGS9vT-42" value="dfg" style="shape=partialRectangle;html=1;whiteSpace=wrap;connectable=0;strokeColor=inherit;overflow=hidden;fillColor=none;top=0;left=0;bottom=0;right=0;pointerEvents=1;fontSize=16;" vertex="1" parent="3bfaiD1BpheH9gyGS9vT-40">
          <mxGeometry x="100" width="60" height="20" as="geometry">
            <mxRectangle width="60" height="20" as="alternateBounds" />
          </mxGeometry>
        </mxCell>
        <mxCell id="3bfaiD1BpheH9gyGS9vT-43" value="" style="shape=partialRectangle;html=1;whiteSpace=wrap;connectable=0;strokeColor=inherit;overflow=hidden;fillColor=none;top=0;left=0;bottom=0;right=0;pointerEvents=1;fontSize=16;" vertex="1" parent="3bfaiD1BpheH9gyGS9vT-40">
          <mxGeometry x="160" width="20" height="20" as="geometry">
            <mxRectangle width="20" height="20" as="alternateBounds" />
          </mxGeometry>
        </mxCell>
        <mxCell id="3bfaiD1BpheH9gyGS9vT-44" value="" style="shape=table;startSize=0;container=1;collapsible=0;childLayout=tableLayout;fontSize=16;" vertex="1" parent="1">
          <mxGeometry x="245" y="550" width="180" height="60" as="geometry" />
        </mxCell>
        <mxCell id="3bfaiD1BpheH9gyGS9vT-45" value="" style="shape=tableRow;horizontal=0;startSize=0;swimlaneHead=0;swimlaneBody=0;strokeColor=inherit;top=0;left=0;bottom=0;right=0;collapsible=0;dropTarget=0;fillColor=none;points=[[0,0.5],[1,0.5]];portConstraint=eastwest;fontSize=16;" vertex="1" parent="3bfaiD1BpheH9gyGS9vT-44">
          <mxGeometry width="180" height="20" as="geometry" />
        </mxCell>
        <mxCell id="3bfaiD1BpheH9gyGS9vT-46" value="ID_Ders" style="shape=partialRectangle;html=1;whiteSpace=wrap;connectable=0;strokeColor=inherit;overflow=hidden;fillColor=none;top=0;left=0;bottom=0;right=0;pointerEvents=1;fontSize=16;" vertex="1" parent="3bfaiD1BpheH9gyGS9vT-45">
          <mxGeometry width="100" height="20" as="geometry">
            <mxRectangle width="100" height="20" as="alternateBounds" />
          </mxGeometry>
        </mxCell>
        <mxCell id="3bfaiD1BpheH9gyGS9vT-47" value="İsim" style="shape=partialRectangle;html=1;whiteSpace=wrap;connectable=0;strokeColor=inherit;overflow=hidden;fillColor=none;top=0;left=0;bottom=0;right=0;pointerEvents=1;fontSize=16;" vertex="1" parent="3bfaiD1BpheH9gyGS9vT-45">
          <mxGeometry x="100" width="60" height="20" as="geometry">
            <mxRectangle width="60" height="20" as="alternateBounds" />
          </mxGeometry>
        </mxCell>
        <mxCell id="3bfaiD1BpheH9gyGS9vT-48" value="" style="shape=partialRectangle;html=1;whiteSpace=wrap;connectable=0;strokeColor=inherit;overflow=hidden;fillColor=none;top=0;left=0;bottom=0;right=0;pointerEvents=1;fontSize=16;" vertex="1" parent="3bfaiD1BpheH9gyGS9vT-45">
          <mxGeometry x="160" width="20" height="20" as="geometry">
            <mxRectangle width="20" height="20" as="alternateBounds" />
          </mxGeometry>
        </mxCell>
        <mxCell id="3bfaiD1BpheH9gyGS9vT-49" value="" style="shape=tableRow;horizontal=0;startSize=0;swimlaneHead=0;swimlaneBody=0;strokeColor=inherit;top=0;left=0;bottom=0;right=0;collapsible=0;dropTarget=0;fillColor=none;points=[[0,0.5],[1,0.5]];portConstraint=eastwest;fontSize=16;" vertex="1" parent="3bfaiD1BpheH9gyGS9vT-44">
          <mxGeometry y="20" width="180" height="20" as="geometry" />
        </mxCell>
        <mxCell id="3bfaiD1BpheH9gyGS9vT-50" value="1" style="shape=partialRectangle;html=1;whiteSpace=wrap;connectable=0;strokeColor=inherit;overflow=hidden;fillColor=none;top=0;left=0;bottom=0;right=0;pointerEvents=1;fontSize=16;" vertex="1" parent="3bfaiD1BpheH9gyGS9vT-49">
          <mxGeometry width="100" height="20" as="geometry">
            <mxRectangle width="100" height="20" as="alternateBounds" />
          </mxGeometry>
        </mxCell>
        <mxCell id="3bfaiD1BpheH9gyGS9vT-51" value="abc" style="shape=partialRectangle;html=1;whiteSpace=wrap;connectable=0;strokeColor=inherit;overflow=hidden;fillColor=none;top=0;left=0;bottom=0;right=0;pointerEvents=1;fontSize=16;" vertex="1" parent="3bfaiD1BpheH9gyGS9vT-49">
          <mxGeometry x="100" width="60" height="20" as="geometry">
            <mxRectangle width="60" height="20" as="alternateBounds" />
          </mxGeometry>
        </mxCell>
        <mxCell id="3bfaiD1BpheH9gyGS9vT-52" value="" style="shape=partialRectangle;html=1;whiteSpace=wrap;connectable=0;strokeColor=inherit;overflow=hidden;fillColor=none;top=0;left=0;bottom=0;right=0;pointerEvents=1;fontSize=16;" vertex="1" parent="3bfaiD1BpheH9gyGS9vT-49">
          <mxGeometry x="160" width="20" height="20" as="geometry">
            <mxRectangle width="20" height="20" as="alternateBounds" />
          </mxGeometry>
        </mxCell>
        <mxCell id="3bfaiD1BpheH9gyGS9vT-53" value="" style="shape=tableRow;horizontal=0;startSize=0;swimlaneHead=0;swimlaneBody=0;strokeColor=inherit;top=0;left=0;bottom=0;right=0;collapsible=0;dropTarget=0;fillColor=none;points=[[0,0.5],[1,0.5]];portConstraint=eastwest;fontSize=16;" vertex="1" parent="3bfaiD1BpheH9gyGS9vT-44">
          <mxGeometry y="40" width="180" height="20" as="geometry" />
        </mxCell>
        <mxCell id="3bfaiD1BpheH9gyGS9vT-54" value="2" style="shape=partialRectangle;html=1;whiteSpace=wrap;connectable=0;strokeColor=inherit;overflow=hidden;fillColor=none;top=0;left=0;bottom=0;right=0;pointerEvents=1;fontSize=16;" vertex="1" parent="3bfaiD1BpheH9gyGS9vT-53">
          <mxGeometry width="100" height="20" as="geometry">
            <mxRectangle width="100" height="20" as="alternateBounds" />
          </mxGeometry>
        </mxCell>
        <mxCell id="3bfaiD1BpheH9gyGS9vT-55" value="dfg" style="shape=partialRectangle;html=1;whiteSpace=wrap;connectable=0;strokeColor=inherit;overflow=hidden;fillColor=none;top=0;left=0;bottom=0;right=0;pointerEvents=1;fontSize=16;" vertex="1" parent="3bfaiD1BpheH9gyGS9vT-53">
          <mxGeometry x="100" width="60" height="20" as="geometry">
            <mxRectangle width="60" height="20" as="alternateBounds" />
          </mxGeometry>
        </mxCell>
        <mxCell id="3bfaiD1BpheH9gyGS9vT-56" value="" style="shape=partialRectangle;html=1;whiteSpace=wrap;connectable=0;strokeColor=inherit;overflow=hidden;fillColor=none;top=0;left=0;bottom=0;right=0;pointerEvents=1;fontSize=16;" vertex="1" parent="3bfaiD1BpheH9gyGS9vT-53">
          <mxGeometry x="160" width="20" height="20" as="geometry">
            <mxRectangle width="20" height="20" as="alternateBounds" />
          </mxGeometry>
        </mxCell>
        <mxCell id="3bfaiD1BpheH9gyGS9vT-57" value="" style="shape=table;startSize=0;container=1;collapsible=0;childLayout=tableLayout;fontSize=16;" vertex="1" parent="1">
          <mxGeometry x="470" y="550" width="290" height="70" as="geometry" />
        </mxCell>
        <mxCell id="3bfaiD1BpheH9gyGS9vT-58" value="" style="shape=tableRow;horizontal=0;startSize=0;swimlaneHead=0;swimlaneBody=0;strokeColor=inherit;top=0;left=0;bottom=0;right=0;collapsible=0;dropTarget=0;fillColor=none;points=[[0,0.5],[1,0.5]];portConstraint=eastwest;fontSize=16;" vertex="1" parent="3bfaiD1BpheH9gyGS9vT-57">
          <mxGeometry width="290" height="20" as="geometry" />
        </mxCell>
        <mxCell id="3bfaiD1BpheH9gyGS9vT-59" value="ID_Ogrenci(Fk)" style="shape=partialRectangle;html=1;whiteSpace=wrap;connectable=0;strokeColor=inherit;overflow=hidden;fillColor=none;top=0;left=0;bottom=0;right=0;pointerEvents=1;fontSize=16;" vertex="1" parent="3bfaiD1BpheH9gyGS9vT-58">
          <mxGeometry width="162" height="20" as="geometry">
            <mxRectangle width="162" height="20" as="alternateBounds" />
          </mxGeometry>
        </mxCell>
        <mxCell id="3bfaiD1BpheH9gyGS9vT-60" value="ID_Ders(Fk)" style="shape=partialRectangle;html=1;whiteSpace=wrap;connectable=0;strokeColor=inherit;overflow=hidden;fillColor=none;top=0;left=0;bottom=0;right=0;pointerEvents=1;fontSize=16;" vertex="1" parent="3bfaiD1BpheH9gyGS9vT-58">
          <mxGeometry x="162" width="96" height="20" as="geometry">
            <mxRectangle width="96" height="20" as="alternateBounds" />
          </mxGeometry>
        </mxCell>
        <mxCell id="3bfaiD1BpheH9gyGS9vT-61" value="" style="shape=partialRectangle;html=1;whiteSpace=wrap;connectable=0;strokeColor=inherit;overflow=hidden;fillColor=none;top=0;left=0;bottom=0;right=0;pointerEvents=1;fontSize=16;" vertex="1" parent="3bfaiD1BpheH9gyGS9vT-58">
          <mxGeometry x="258" width="32" height="20" as="geometry">
            <mxRectangle width="32" height="20" as="alternateBounds" />
          </mxGeometry>
        </mxCell>
        <mxCell id="3bfaiD1BpheH9gyGS9vT-62" value="" style="shape=tableRow;horizontal=0;startSize=0;swimlaneHead=0;swimlaneBody=0;strokeColor=inherit;top=0;left=0;bottom=0;right=0;collapsible=0;dropTarget=0;fillColor=none;points=[[0,0.5],[1,0.5]];portConstraint=eastwest;fontSize=16;" vertex="1" parent="3bfaiD1BpheH9gyGS9vT-57">
          <mxGeometry y="20" width="290" height="30" as="geometry" />
        </mxCell>
        <mxCell id="3bfaiD1BpheH9gyGS9vT-63" value="1" style="shape=partialRectangle;html=1;whiteSpace=wrap;connectable=0;strokeColor=inherit;overflow=hidden;fillColor=none;top=0;left=0;bottom=0;right=0;pointerEvents=1;fontSize=16;" vertex="1" parent="3bfaiD1BpheH9gyGS9vT-62">
          <mxGeometry width="162" height="30" as="geometry">
            <mxRectangle width="162" height="30" as="alternateBounds" />
          </mxGeometry>
        </mxCell>
        <mxCell id="3bfaiD1BpheH9gyGS9vT-64" value="abc" style="shape=partialRectangle;html=1;whiteSpace=wrap;connectable=0;strokeColor=inherit;overflow=hidden;fillColor=none;top=0;left=0;bottom=0;right=0;pointerEvents=1;fontSize=16;" vertex="1" parent="3bfaiD1BpheH9gyGS9vT-62">
          <mxGeometry x="162" width="96" height="30" as="geometry">
            <mxRectangle width="96" height="30" as="alternateBounds" />
          </mxGeometry>
        </mxCell>
        <mxCell id="3bfaiD1BpheH9gyGS9vT-65" value="" style="shape=partialRectangle;html=1;whiteSpace=wrap;connectable=0;strokeColor=inherit;overflow=hidden;fillColor=none;top=0;left=0;bottom=0;right=0;pointerEvents=1;fontSize=16;" vertex="1" parent="3bfaiD1BpheH9gyGS9vT-62">
          <mxGeometry x="258" width="32" height="30" as="geometry">
            <mxRectangle width="32" height="30" as="alternateBounds" />
          </mxGeometry>
        </mxCell>
        <mxCell id="3bfaiD1BpheH9gyGS9vT-66" value="" style="shape=tableRow;horizontal=0;startSize=0;swimlaneHead=0;swimlaneBody=0;strokeColor=inherit;top=0;left=0;bottom=0;right=0;collapsible=0;dropTarget=0;fillColor=none;points=[[0,0.5],[1,0.5]];portConstraint=eastwest;fontSize=16;" vertex="1" parent="3bfaiD1BpheH9gyGS9vT-57">
          <mxGeometry y="50" width="290" height="20" as="geometry" />
        </mxCell>
        <mxCell id="3bfaiD1BpheH9gyGS9vT-67" value="2" style="shape=partialRectangle;html=1;whiteSpace=wrap;connectable=0;strokeColor=inherit;overflow=hidden;fillColor=none;top=0;left=0;bottom=0;right=0;pointerEvents=1;fontSize=16;" vertex="1" parent="3bfaiD1BpheH9gyGS9vT-66">
          <mxGeometry width="162" height="20" as="geometry">
            <mxRectangle width="162" height="20" as="alternateBounds" />
          </mxGeometry>
        </mxCell>
        <mxCell id="3bfaiD1BpheH9gyGS9vT-68" value="dfg" style="shape=partialRectangle;html=1;whiteSpace=wrap;connectable=0;strokeColor=inherit;overflow=hidden;fillColor=none;top=0;left=0;bottom=0;right=0;pointerEvents=1;fontSize=16;" vertex="1" parent="3bfaiD1BpheH9gyGS9vT-66">
          <mxGeometry x="162" width="96" height="20" as="geometry">
            <mxRectangle width="96" height="20" as="alternateBounds" />
          </mxGeometry>
        </mxCell>
        <mxCell id="3bfaiD1BpheH9gyGS9vT-69" value="" style="shape=partialRectangle;html=1;whiteSpace=wrap;connectable=0;strokeColor=inherit;overflow=hidden;fillColor=none;top=0;left=0;bottom=0;right=0;pointerEvents=1;fontSize=16;" vertex="1" parent="3bfaiD1BpheH9gyGS9vT-66">
          <mxGeometry x="258" width="32" height="20" as="geometry">
            <mxRectangle width="32" height="20" as="alternateBounds" />
          </mxGeometry>
        </mxCell>
        <mxCell id="3bfaiD1BpheH9gyGS9vT-70" value="" style="endArrow=classic;html=1;rounded=0;entryX=0.003;entryY=-0.17;entryDx=0;entryDy=0;entryPerimeter=0;" edge="1" parent="1" source="3bfaiD1BpheH9gyGS9vT-11" target="3bfaiD1BpheH9gyGS9vT-58">
          <mxGeometry width="50" height="50" relative="1" as="geometry">
            <mxPoint x="400" y="420" as="sourcePoint" />
            <mxPoint x="450" y="370" as="targetPoint" />
          </mxGeometry>
        </mxCell>
        <mxCell id="3bfaiD1BpheH9gyGS9vT-71" value="" style="shape=table;startSize=0;container=1;collapsible=0;childLayout=tableLayout;fontSize=16;" vertex="1" parent="1">
          <mxGeometry x="40" y="130" width="290" height="70" as="geometry" />
        </mxCell>
        <mxCell id="3bfaiD1BpheH9gyGS9vT-72" value="" style="shape=tableRow;horizontal=0;startSize=0;swimlaneHead=0;swimlaneBody=0;strokeColor=inherit;top=0;left=0;bottom=0;right=0;collapsible=0;dropTarget=0;fillColor=none;points=[[0,0.5],[1,0.5]];portConstraint=eastwest;fontSize=16;" vertex="1" parent="3bfaiD1BpheH9gyGS9vT-71">
          <mxGeometry width="290" height="20" as="geometry" />
        </mxCell>
        <mxCell id="3bfaiD1BpheH9gyGS9vT-73" value="ID_Hoca(Fk)&lt;span style=&quot;white-space: pre;&quot;&gt;&#x9;&lt;/span&gt;" style="shape=partialRectangle;html=1;whiteSpace=wrap;connectable=0;strokeColor=inherit;overflow=hidden;fillColor=none;top=0;left=0;bottom=0;right=0;pointerEvents=1;fontSize=16;" vertex="1" parent="3bfaiD1BpheH9gyGS9vT-72">
          <mxGeometry width="161" height="20" as="geometry">
            <mxRectangle width="161" height="20" as="alternateBounds" />
          </mxGeometry>
        </mxCell>
        <mxCell id="3bfaiD1BpheH9gyGS9vT-74" value="ID_Ders(Fk)" style="shape=partialRectangle;html=1;whiteSpace=wrap;connectable=0;strokeColor=inherit;overflow=hidden;fillColor=none;top=0;left=0;bottom=0;right=0;pointerEvents=1;fontSize=16;" vertex="1" parent="3bfaiD1BpheH9gyGS9vT-72">
          <mxGeometry x="161" width="109" height="20" as="geometry">
            <mxRectangle width="109" height="20" as="alternateBounds" />
          </mxGeometry>
        </mxCell>
        <mxCell id="3bfaiD1BpheH9gyGS9vT-75" value="" style="shape=partialRectangle;html=1;whiteSpace=wrap;connectable=0;strokeColor=inherit;overflow=hidden;fillColor=none;top=0;left=0;bottom=0;right=0;pointerEvents=1;fontSize=16;" vertex="1" parent="3bfaiD1BpheH9gyGS9vT-72">
          <mxGeometry x="270" width="20" height="20" as="geometry">
            <mxRectangle width="20" height="20" as="alternateBounds" />
          </mxGeometry>
        </mxCell>
        <mxCell id="3bfaiD1BpheH9gyGS9vT-76" value="" style="shape=tableRow;horizontal=0;startSize=0;swimlaneHead=0;swimlaneBody=0;strokeColor=inherit;top=0;left=0;bottom=0;right=0;collapsible=0;dropTarget=0;fillColor=none;points=[[0,0.5],[1,0.5]];portConstraint=eastwest;fontSize=16;" vertex="1" parent="3bfaiD1BpheH9gyGS9vT-71">
          <mxGeometry y="20" width="290" height="30" as="geometry" />
        </mxCell>
        <mxCell id="3bfaiD1BpheH9gyGS9vT-77" value="1" style="shape=partialRectangle;html=1;whiteSpace=wrap;connectable=0;strokeColor=inherit;overflow=hidden;fillColor=none;top=0;left=0;bottom=0;right=0;pointerEvents=1;fontSize=16;" vertex="1" parent="3bfaiD1BpheH9gyGS9vT-76">
          <mxGeometry width="161" height="30" as="geometry">
            <mxRectangle width="161" height="30" as="alternateBounds" />
          </mxGeometry>
        </mxCell>
        <mxCell id="3bfaiD1BpheH9gyGS9vT-78" value="abc" style="shape=partialRectangle;html=1;whiteSpace=wrap;connectable=0;strokeColor=inherit;overflow=hidden;fillColor=none;top=0;left=0;bottom=0;right=0;pointerEvents=1;fontSize=16;" vertex="1" parent="3bfaiD1BpheH9gyGS9vT-76">
          <mxGeometry x="161" width="109" height="30" as="geometry">
            <mxRectangle width="109" height="30" as="alternateBounds" />
          </mxGeometry>
        </mxCell>
        <mxCell id="3bfaiD1BpheH9gyGS9vT-79" value="" style="shape=partialRectangle;html=1;whiteSpace=wrap;connectable=0;strokeColor=inherit;overflow=hidden;fillColor=none;top=0;left=0;bottom=0;right=0;pointerEvents=1;fontSize=16;" vertex="1" parent="3bfaiD1BpheH9gyGS9vT-76">
          <mxGeometry x="270" width="20" height="30" as="geometry">
            <mxRectangle width="20" height="30" as="alternateBounds" />
          </mxGeometry>
        </mxCell>
        <mxCell id="3bfaiD1BpheH9gyGS9vT-80" value="" style="shape=tableRow;horizontal=0;startSize=0;swimlaneHead=0;swimlaneBody=0;strokeColor=inherit;top=0;left=0;bottom=0;right=0;collapsible=0;dropTarget=0;fillColor=none;points=[[0,0.5],[1,0.5]];portConstraint=eastwest;fontSize=16;" vertex="1" parent="3bfaiD1BpheH9gyGS9vT-71">
          <mxGeometry y="50" width="290" height="20" as="geometry" />
        </mxCell>
        <mxCell id="3bfaiD1BpheH9gyGS9vT-81" value="2" style="shape=partialRectangle;html=1;whiteSpace=wrap;connectable=0;strokeColor=inherit;overflow=hidden;fillColor=none;top=0;left=0;bottom=0;right=0;pointerEvents=1;fontSize=16;" vertex="1" parent="3bfaiD1BpheH9gyGS9vT-80">
          <mxGeometry width="161" height="20" as="geometry">
            <mxRectangle width="161" height="20" as="alternateBounds" />
          </mxGeometry>
        </mxCell>
        <mxCell id="3bfaiD1BpheH9gyGS9vT-82" value="dfg" style="shape=partialRectangle;html=1;whiteSpace=wrap;connectable=0;strokeColor=inherit;overflow=hidden;fillColor=none;top=0;left=0;bottom=0;right=0;pointerEvents=1;fontSize=16;" vertex="1" parent="3bfaiD1BpheH9gyGS9vT-80">
          <mxGeometry x="161" width="109" height="20" as="geometry">
            <mxRectangle width="109" height="20" as="alternateBounds" />
          </mxGeometry>
        </mxCell>
        <mxCell id="3bfaiD1BpheH9gyGS9vT-83" value="" style="shape=partialRectangle;html=1;whiteSpace=wrap;connectable=0;strokeColor=inherit;overflow=hidden;fillColor=none;top=0;left=0;bottom=0;right=0;pointerEvents=1;fontSize=16;" vertex="1" parent="3bfaiD1BpheH9gyGS9vT-80">
          <mxGeometry x="270" width="20" height="20" as="geometry">
            <mxRectangle width="20" height="20" as="alternateBounds" />
          </mxGeometry>
        </mxCell>
        <mxCell id="3bfaiD1BpheH9gyGS9vT-84" value="" style="endArrow=classic;html=1;rounded=0;exitX=0;exitY=0.5;exitDx=0;exitDy=0;entryX=1.01;entryY=0.93;entryDx=0;entryDy=0;entryPerimeter=0;" edge="1" parent="1" source="3bfaiD1BpheH9gyGS9vT-13" target="3bfaiD1BpheH9gyGS9vT-80">
          <mxGeometry width="50" height="50" relative="1" as="geometry">
            <mxPoint x="400" y="260" as="sourcePoint" />
            <mxPoint x="450" y="210" as="targetPoint" />
          </mxGeometry>
        </mxCell>
      </root>
    </mxGraphModel>
  </diagram>
</mxfile>
